<?xml version="1.0" encoding="utf-8"?>
<!-- Generator: Adobe Illustrator 24.0.2, SVG Export Plug-In . SVG Version: 6.00 Build 0)  -->
<!DOCTYPE svg PUBLIC "-//W3C//DTD SVG 1.0//EN" "http://www.w3.org/TR/2001/REC-SVG-20010904/DTD/svg10.dtd" [
	<!ENTITY ns_extend "http://ns.adobe.com/Extensibility/1.0/">
	<!ENTITY ns_ai "http://ns.adobe.com/AdobeIllustrator/10.0/">
	<!ENTITY ns_graphs "http://ns.adobe.com/Graphs/1.0/">
	<!ENTITY ns_vars "http://ns.adobe.com/Variables/1.0/">
	<!ENTITY ns_imrep "http://ns.adobe.com/ImageReplacement/1.0/">
	<!ENTITY ns_sfw "http://ns.adobe.com/SaveForWeb/1.0/">
	<!ENTITY ns_custom "http://ns.adobe.com/GenericCustomNamespace/1.0/">
	<!ENTITY ns_adobe_xpath "http://ns.adobe.com/XPath/1.0/">
]>
<svg version="1.0" id="OBJECTS" xmlns:x="&ns_extend;" xmlns:i="&ns_ai;" xmlns:graph="&ns_graphs;"
	 xmlns="http://www.w3.org/2000/svg" xmlns:xlink="http://www.w3.org/1999/xlink" x="0px" y="0px" viewBox="0 0 336 338.2"
	 style="enable-background:new 0 0 336 338.2;" xml:space="preserve">
<style type="text/css">
	.st0{opacity:0.7;fill:#00ABE7;}
	.st1{opacity:0.5;fill:#00ABE7;}
	.st2{opacity:0.5;}
	.st3{fill:none;stroke:#FFFFFF;stroke-miterlimit:10;}
	.st4{fill:none;stroke:#00ABE7;stroke-linecap:round;stroke-miterlimit:10;}
	.st5{fill:none;stroke:#00ABE7;stroke-linecap:round;stroke-miterlimit:10;stroke-dasharray:4.1045,5.1306;}
	.st6{fill:none;stroke:#00ABE7;stroke-linecap:round;stroke-miterlimit:10;stroke-dasharray:4.1045,5.1306,4.1045,5.1306;}
	.st7{fill:none;stroke:#00ABE7;stroke-linecap:round;stroke-miterlimit:10;stroke-dasharray:4,5,4,5;}
	.st8{fill:#F6958E;}
	.st9{opacity:0.5;fill:#F6958E;}
	.st10{opacity:0.7;fill:#F6958E;}
	.st11{fill:#1A1A1A;}
	.st12{fill:#FFFFFF;}
	.st13{fill:#333333;}
	.st14{fill:#0058EE;}
	.st15{fill:#929497;}
	.st16{fill:#00ABE7;}
	.st17{opacity:0.5;fill:#A9C8C8;}
</style>
<metadata>
	<sfw  xmlns="&ns_sfw;">
		<slices></slices>
		<sliceSourceBounds  bottomLeftOrigin="true" height="326.7" width="310.3" x="395.6" y="-621.2"></sliceSourceBounds>
		<optimizationSettings>
			<targetSettings  fileFormat="JPEGFormat" targetSettingsID="0">
				
					<JPEGFormat  blurAmount="0" embedICCProfile="false" matteColor="#FFFFFF" noMatteColor="false" optimized="true" progressive="true" quality="100">
					</JPEGFormat>
			</targetSettings>
		</optimizationSettings>
	</sfw>
</metadata>
<g id="XMLID_204_">
	<circle id="XMLID_199_" class="st0" cx="287.1" cy="255.2" r="37.8"/>
	<path id="XMLID_334_" class="st1" d="M180.5,299.2h-107c-9.4,0-16.9-7.6-16.9-16.9v-107c0-9.4,7.6-16.9,16.9-16.9h107
		c9.4,0,16.9,7.6,16.9,16.9v107C197.4,291.6,189.8,299.2,180.5,299.2z"/>
	<g id="XMLID_201_" class="st2">
		<line id="XMLID_245_" class="st3" x1="74" y1="234.6" x2="179.9" y2="234.6"/>
		<line id="XMLID_243_" class="st3" x1="74" y1="240.3" x2="179.9" y2="240.3"/>
		<line id="XMLID_237_" class="st3" x1="74" y1="246" x2="179.9" y2="246"/>
		<line id="XMLID_226_" class="st3" x1="74" y1="251.7" x2="179.9" y2="251.7"/>
		<line id="XMLID_223_" class="st3" x1="74" y1="257.4" x2="179.9" y2="257.4"/>
		<line id="XMLID_220_" class="st3" x1="74" y1="263" x2="179.9" y2="263"/>
		<line id="XMLID_218_" class="st3" x1="74" y1="268.7" x2="179.9" y2="268.7"/>
		<line id="XMLID_217_" class="st3" x1="74" y1="274.4" x2="179.9" y2="274.4"/>
		<line id="XMLID_215_" class="st3" x1="74" y1="280.1" x2="179.9" y2="280.1"/>
	</g>
	<g id="XMLID_141_">
		<g>
			<line class="st4" x1="314.5" y1="76.5" x2="314.5" y2="78.5"/>
			<line class="st5" x1="314.5" y1="83.6" x2="314.5" y2="90.3"/>
			<path class="st6" d="M314.5,92.8v51.9c0,22.3-18.1,40.4-40.4,40.4h-29.8"/>
			<line class="st4" x1="241.7" y1="185.2" x2="239.7" y2="185.2"/>
		</g>
	</g>
	<path id="XMLID_197_" class="st7" d="M47.4,118.2c0-45.6,37-82.6,82.6-82.6"/>
	<path id="XMLID_68_" class="st0" d="M76.2,194.9H31.5c-9.4,0-16.9-7.6-16.9-16.9v-44.7c0-9.4,7.6-16.9,16.9-16.9h44.7
		c9.4,0,16.9,7.6,16.9,16.9V178C93.2,187.3,85.6,194.9,76.2,194.9z"/>
	<g id="XMLID_187_" class="st2">
		<line id="XMLID_154_" class="st3" x1="25.1" y1="132.9" x2="82.6" y2="132.9"/>
		<line id="XMLID_188_" class="st3" x1="25.1" y1="138.6" x2="82.6" y2="138.6"/>
		<line id="XMLID_190_" class="st3" x1="25.1" y1="144.3" x2="82.6" y2="144.3"/>
		<line id="XMLID_191_" class="st3" x1="25.1" y1="149.9" x2="82.6" y2="149.9"/>
		<line id="XMLID_192_" class="st3" x1="25.1" y1="155.6" x2="82.6" y2="155.6"/>
		<line id="XMLID_193_" class="st3" x1="25.1" y1="161.3" x2="82.6" y2="161.3"/>
		<line id="XMLID_195_" class="st3" x1="25.1" y1="167" x2="82.6" y2="167"/>
		<line id="XMLID_196_" class="st3" x1="25.1" y1="172.7" x2="82.6" y2="172.7"/>
		<line id="XMLID_198_" class="st3" x1="25.1" y1="178.4" x2="82.6" y2="178.4"/>
	</g>
	<g id="XMLID_2153_">
		<path id="XMLID_542_" class="st8" d="M130.4,194.1c-0.9,0.6-1.7,1.1-2.7,1.5c-3.7,1.7-8.1,2.7-10.3,6.1c-2,3.1-1.1,7.6,1.4,10.3
			c2.6,2.7,6.4,3.8,10.2,3.7c0.4,0,0.9,0,1.3-0.1V194.1z"/>
		<path id="XMLID_543_" class="st9" d="M130.4,194.1c-0.9,0.6-1.7,1.1-2.7,1.5c-0.5,0.2-0.9,0.4-1.4,0.6c-3.3,1.4-7,2.5-8.9,5.5
			c-2,3.1-1.1,7.6,1.4,10.3c0.7,0.8,1.5,1.4,2.4,1.9c2.3,1.3,5,1.9,7.7,1.8c0.4,0,0.9,0,1.3-0.1V194.1z"/>
		<path id="XMLID_544_" class="st9" d="M130.4,194.1c-0.9,0.6-1.7,1.1-2.7,1.5c-0.5,0.2-0.9,0.4-1.4,0.6c-0.2,4-0.6,12-1.2,14
			c-0.4,1.3-2.1,2.6-3.8,3.7c2.3,1.3,5,1.9,7.7,1.8c0.4,0,0.9,0,1.3-0.1V194.1z"/>
		<path id="XMLID_546_" class="st8" d="M130.4,157.4c-6.2,2.8-11.2,8.6-11.8,15.5c-0.2,2.2,0.1,4.5,1,6.5c0.1,0.2,0.2,0.3,0.2,0.5
			c1.4,2.5,4.3,4.6,7.3,4.4c1.1-0.1,2.2-0.3,3.2-0.6V157.4z"/>
		<path id="XMLID_555_" class="st9" d="M130.4,157.4c-1.4,0.6-2.7,1.4-3.9,2.3c-4.3,3.2-7.4,7.9-7.9,13.2c-0.2,2.2,0.1,4.5,1,6.5
			c0.1,0.2,0.2,0.3,0.2,0.5c0.3,0.5,0.6,1,1,1.4c1.6,1.9,3.9,3.2,6.3,3c1.1-0.1,2.2-0.3,3.2-0.6V157.4z"/>
		<path id="XMLID_557_" class="st9" d="M130.4,157.4c-1.4,0.6-2.7,1.4-3.9,2.3c0,4.3-0.5,14.7-5.6,21.5c1.6,1.9,3.9,3.2,6.3,3
			c1.1-0.1,2.2-0.3,3.2-0.6V157.4z"/>
		<path id="XMLID_558_" class="st8" d="M130.4,126c-1.9,1.3-3.9,2.5-5.9,3.8c-3.1,2.1-5.3,4.2-6.4,7.8c-0.8,2.6-0.6,5.4,0.5,7.9
			c2.2,4.8,6.9,6.7,11.8,7V126z"/>
		<path id="XMLID_559_" class="st9" d="M130.4,126c-1.2,0.8-2.5,1.6-3.7,2.4c-0.7,0.5-1.4,0.9-2.1,1.4c-3.1,2.1-5.3,4.2-6.4,7.8
			c-0.8,2.6-0.6,5.4,0.5,7.8c0.2,0.4,0.3,0.7,0.5,1c2.4,4.1,6.7,5.7,11.2,6V126z"/>
		<path id="XMLID_560_" class="st9" d="M130.4,126c-1.2,0.8-2.5,1.6-3.7,2.4c-0.1,5.3-1.3,14.6-7.5,18.1c2.4,4.1,6.7,5.7,11.2,6V126
			z"/>
		<path id="XMLID_2163_" class="st8" d="M175.4,230.1c0,0,6.9,14.2,13.7,22.6c0,0,14.6,55,64.3,56.4l-24.1-82.9L175.4,230.1z"/>
		<path id="XMLID_2164_" class="st9" d="M175.4,230.1c0,0,6.9,14.2,13.7,22.6c0,0,13.7,51.5,59.6,56.1c1.5,0.2,3.1,0.3,4.7,0.3
			l-17.9-61.8l-6.1-21.1L175.4,230.1z"/>
		<path id="XMLID_2165_" class="st10" d="M205.9,268.4c0,0-3.2,5.5-4,8.6c0.1-0.1,1-2.5,4.7-4.6c0,0,5.4,18.3,16.8,24.5
			c6.4,3.4,17.1,8.3,25.4,11.9c1.5,0.2,3.1,0.3,4.7,0.3l-17.9-61.8l-27.2-6.4c0,0-13.3,1.8-18.6,10.4c0.2-0.1,5-4.7,13.3-4.7
			C203.1,246.6,202.5,261.8,205.9,268.4z"/>
		<path id="XMLID_2166_" class="st8" d="M306.2,338.2h-79.3l-6.3-39.8l-0.6-3.9l-0.2-1.3l27.4-6l32.8-7.1c1.5,0.5,19,26.9,19,26.9
			L306.2,338.2z"/>
		<g id="XMLID_2167_">
			<g id="XMLID_2168_">
				<path id="XMLID_3311_" d="M129,92.7h-0.9c-0.9,0-1.6-0.7-1.6-1.6V65.9c0-0.9,0.7-1.6,1.6-1.6h0.9V92.7z"/>
				<path id="XMLID_3310_" d="M240.8,51.8h0.9c0.9,0,1.6-0.7,1.6-1.6v-6.4c0-0.9-0.7-1.6-1.6-1.6h-0.9V51.8z"/>
				<path id="XMLID_3309_" d="M240.8,76.2h0.9c0.9,0,1.6-0.7,1.6-1.6V59.9c0-0.9-0.7-1.6-1.6-1.6h-0.9V76.2z"/>
				<path id="XMLID_3308_" d="M240.8,98.2h0.9c0.9,0,1.6-0.7,1.6-1.6V81.9c0-0.9-0.7-1.6-1.6-1.6h-0.9V98.2z"/>
				<path id="XMLID_523_" class="st11" d="M225.3,11.5h-80.9c-9.2,0-16.6,7.4-16.6,16.6v199.4c0,9.2,7.4,16.6,16.6,16.6h80.9
					c9.2,0,16.6-7.4,16.6-16.6V28.1C241.9,18.9,234.5,11.5,225.3,11.5z M237,154.6H132.9V50.6H237V154.6z"/>
				<path id="XMLID_520_" d="M220.5,13.7h-71.4c-10.6,0-19.2,8.6-19.2,19.2v189.9c0,10.6,8.6,19.2,19.2,19.2h71.4
					c10.6,0,19.2-8.6,19.2-19.2V32.8C239.7,22.2,231.1,13.7,220.5,13.7z M237,154.6H132.9V50.6H237V154.6z"/>
				<path id="XMLID_516_" d="M221.5,15.9h-73.3c-8.9,0-16,7.2-16,16v191.8c0,8.9,7.2,16,16,16h73.3c8.9,0,16-7.2,16-16V31.9
					C237.5,23,230.3,15.9,221.5,15.9z M237,154.6H132.9V50.6H237V154.6z"/>
				<g id="XMLID_86_">
					<path id="XMLID_99_" class="st12" d="M236.6,50.6v-19c0-8.2-6.6-14.8-14.8-14.8h-74c-8.2,0-14.8,6.6-14.8,14.8v19H236.6z"/>
					<path id="XMLID_511_" class="st12" d="M133,154.6V224c0,8.2,6.6,14.8,14.8,14.8h74c8.2,0,14.8-6.6,14.8-14.8v-69.4H133z"/>
				</g>
				<g id="XMLID_2170_">
					<path id="XMLID_2171_" class="st13" d="M131.6,229.5V26.1c0-4.3,2-8.1,5.1-10.6c-4,2.3-6.7,6.7-6.7,11.7v201.3
						c0,5,2.7,9.3,6.7,11.7C133.6,237.6,131.6,233.8,131.6,229.5z"/>
					<path id="XMLID_2172_" class="st13" d="M238.1,229.5V26.1c0-4.3-2-8.1-5.1-10.6c4,2.3,6.7,6.7,6.7,11.7v201.3
						c0,5-2.7,9.3-6.7,11.7C236.1,237.6,238.1,233.8,238.1,229.5z"/>
				</g>
				<path id="XMLID_2173_" d="M215.1,15.5c-0.7,0.5-1.9,1.6-2.1,3.6c-0.3,2.8-1.3,6.3-5.6,6.3h-18.7c-4.3,0-7.6,0-7.6,0h-18.7
					c-4.3,0-5.3-3.4-5.6-6.3c-0.2-2-1.4-3.1-2.1-3.6H215.1z"/>
				<g id="XMLID_2174_">
					<path id="XMLID_2175_" class="st13" d="M192,19.7v0.4c0,0.4-0.3,0.7-0.7,0.7h-13c-0.4,0-0.7-0.3-0.7-0.7v-0.4
						c0-0.2,0.1-0.5,0.3-0.6c0.1-0.1,0.2-0.1,0.4-0.1h13c0.1,0,0.3,0,0.4,0.1C191.9,19.3,192,19.5,192,19.7z"/>
					<path id="XMLID_2176_" class="st11" d="M191.8,19.5v0.2c0,0.3-0.3,0.6-0.6,0.6h-12.7c-0.3,0-0.6-0.3-0.6-0.6v-0.2
						c0-0.1,0-0.2,0.1-0.3c0.1-0.1,0.2-0.1,0.4-0.1h13c0.1,0,0.3,0,0.4,0.1C191.8,19.2,191.8,19.4,191.8,19.5z"/>
				</g>
				<g id="XMLID_2177_">
					<path id="XMLID_2178_" d="M198.9,20.1c0,0.8-0.7,1.5-1.5,1.5c-0.8,0-1.5-0.7-1.5-1.5c0-0.8,0.7-1.5,1.5-1.5
						C198.3,18.6,198.9,19.3,198.9,20.1z"/>
					<path id="XMLID_2179_" class="st13" d="M199.6,20.1c0,1.2-1,2.2-2.2,2.2c-1.2,0-2.2-1-2.2-2.2c0-1.2,1-2.2,2.2-2.2
						C198.6,18,199.6,18.9,199.6,20.1z"/>
					<path id="XMLID_2180_" d="M199.2,20.1c0,1-0.8,1.8-1.8,1.8c-1,0-1.8-0.8-1.8-1.8c0-1,0.8-1.8,1.8-1.8
						C198.4,18.4,199.2,19.2,199.2,20.1z"/>
					<path id="XMLID_2181_" class="st14" d="M197.8,18.7c0.2,0.2,0.3,0.5,0.3,0.9c0,0.8-0.7,1.5-1.5,1.5c-0.1,0-0.3,0-0.4-0.1
						c0.3,0.4,0.7,0.7,1.2,0.7c0.8,0,1.5-0.7,1.5-1.5C198.9,19.5,198.5,18.9,197.8,18.7z"/>
					<path id="XMLID_3292_" class="st12" d="M197.1,18.8c0.1,0.1,0,0.4-0.2,0.6c-0.2,0.2-0.5,0.2-0.6,0.1c-0.1-0.1,0-0.4,0.2-0.6
						C196.8,18.8,197,18.7,197.1,18.8z"/>
				</g>
				<g id="XMLID_2182_">
					<g id="XMLID_2183_">
						<path class="st15" d="M142.7,24c0-0.3,0.2-0.5,0.4-0.6l0,0c-0.2-0.1-0.4-0.3-0.4-0.5c0-0.4,0.3-0.6,0.7-0.6
							c0.4,0,0.6,0.3,0.6,0.5c0,0.2-0.1,0.4-0.4,0.5v0c0.3,0.1,0.4,0.3,0.4,0.6c0,0.4-0.3,0.6-0.8,0.6C143,24.6,142.7,24.4,142.7,24
							z M143.9,24c0-0.3-0.2-0.4-0.5-0.5c-0.3,0.1-0.4,0.2-0.4,0.5c0,0.2,0.2,0.4,0.4,0.4C143.7,24.4,143.9,24.2,143.9,24z
							 M143.1,22.9c0,0.2,0.2,0.3,0.4,0.4c0.2-0.1,0.3-0.2,0.3-0.4c0-0.2-0.1-0.4-0.4-0.4C143.2,22.6,143.1,22.7,143.1,22.9z"/>
						<path class="st15" d="M144.5,23.2c0-0.1,0.1-0.2,0.2-0.2s0.2,0.1,0.2,0.2c0,0.1-0.1,0.2-0.2,0.2
							C144.6,23.4,144.5,23.3,144.5,23.2z M144.5,24.4c0-0.1,0.1-0.2,0.2-0.2s0.2,0.1,0.2,0.2c0,0.1-0.1,0.2-0.2,0.2
							C144.6,24.6,144.5,24.5,144.5,24.4z"/>
						<path class="st15" d="M145.2,24.3c0.1,0.1,0.3,0.1,0.5,0.1c0.4,0,0.5-0.2,0.5-0.4c0-0.3-0.3-0.4-0.6-0.4h-0.2v-0.2h0.2
							c0.2,0,0.5-0.1,0.5-0.4c0-0.2-0.1-0.3-0.4-0.3c-0.2,0-0.3,0.1-0.4,0.1l-0.1-0.2c0.1-0.1,0.3-0.2,0.6-0.2
							c0.4,0,0.6,0.3,0.6,0.5c0,0.2-0.1,0.4-0.4,0.5v0c0.3,0.1,0.5,0.3,0.5,0.6c0,0.4-0.3,0.7-0.8,0.7c-0.2,0-0.5-0.1-0.6-0.1
							L145.2,24.3z"/>
						<path class="st15" d="M148.4,23.5c0,0.8-0.3,1.2-0.8,1.2c-0.4,0-0.7-0.4-0.7-1.1c0-0.7,0.3-1.1,0.8-1.1
							C148.1,22.3,148.4,22.8,148.4,23.5z M147.2,23.5c0,0.6,0.2,0.9,0.4,0.9c0.3,0,0.5-0.4,0.5-0.9c0-0.5-0.1-0.9-0.4-0.9
							C147.4,22.6,147.2,22.9,147.2,23.5z"/>
					</g>
					<g id="XMLID_2184_">
						<rect id="XMLID_3289_" x="215" y="23.6" class="st15" width="0.7" height="1.1"/>
						<rect id="XMLID_3288_" x="216" y="23.1" class="st15" width="0.7" height="1.6"/>
						<rect id="XMLID_3287_" x="217" y="22.7" class="st15" width="0.7" height="2"/>
						<rect id="XMLID_3286_" x="218" y="22.2" class="st15" width="0.7" height="2.5"/>
					</g>
					<g id="XMLID_2185_">
						<path id="XMLID_2186_" class="st15" d="M220.2,23.5c0.4-0.4,0.9-0.6,1.5-0.6s1.1,0.2,1.5,0.6l0.5-0.5c-0.5-0.5-1.2-0.8-2-0.8
							c-0.8,0-1.5,0.3-2,0.8L220.2,23.5z"/>
						<path id="XMLID_2187_" class="st15" d="M220.8,24.1c0.2-0.2,0.6-0.4,0.9-0.4c0.4,0,0.7,0.1,0.9,0.4l0.5-0.5
							c-0.4-0.3-0.8-0.6-1.4-0.6s-1,0.2-1.4,0.6L220.8,24.1z"/>
						<path id="XMLID_2188_" class="st15" d="M221.4,24.7c0.1-0.1,0.2-0.1,0.3-0.1c0.1,0,0.2,0,0.3,0.1l0.5-0.5
							c-0.2-0.2-0.5-0.3-0.8-0.3s-0.6,0.1-0.8,0.3L221.4,24.7z"/>
					</g>
					<g id="XMLID_2189_">
						<path id="XMLID_2606_" class="st15" d="M228.9,24.4h-4.1c-0.1,0-0.2-0.1-0.2-0.2v-1.6c0-0.1,0.1-0.2,0.2-0.2h4.1
							c0.1,0,0.2,0.1,0.2,0.2v1.6C229.1,24.3,229,24.4,228.9,24.4z"/>
						<path id="XMLID_2595_" class="st15" d="M229.4,23.9L229.4,23.9c-0.1,0-0.2-0.1-0.2-0.2v-0.5c0-0.1,0.1-0.2,0.2-0.2h0
							c0.1,0,0.2,0.1,0.2,0.2v0.5C229.6,23.8,229.5,23.9,229.4,23.9z"/>
					</g>
				</g>
			</g>
		</g>
		<path id="XMLID_3267_" class="st16" d="M152.4,193.3h65c4.9,0,8.8-5.3,8.8-11.7l0,0c0-6.4-4-11.7-8.8-11.7h-65
			c-4.9,0-8.8,5.3-8.8,11.7l0,0C143.6,188,147.6,193.3,152.4,193.3z"/>
		<g id="XMLID_4_">
			<path class="st12" d="M167.6,185.4c0.6,0.4,1.5,0.7,2.4,0.7c1.4,0,2.2-0.7,2.2-1.8c0-1-0.6-1.5-2-2.1c-1.7-0.6-2.8-1.5-2.8-3
				c0-1.6,1.4-2.9,3.4-2.9c1.1,0,1.9,0.3,2.3,0.5l-0.4,1.1c-0.3-0.2-1-0.5-2-0.5c-1.4,0-2,0.9-2,1.6c0,1,0.6,1.5,2.1,2
				c1.8,0.7,2.7,1.5,2.7,3.1c0,1.6-1.2,3-3.7,3c-1,0-2.1-0.3-2.7-0.7L167.6,185.4z"/>
			<path class="st12" d="M182.8,186.7c-0.5,0.3-1.5,0.5-2.8,0.5c-3,0-5.2-1.9-5.2-5.3c0-3.3,2.2-5.5,5.5-5.5c1.3,0,2.1,0.3,2.5,0.5
				l-0.3,1.1c-0.5-0.3-1.2-0.4-2.1-0.4c-2.5,0-4.1,1.6-4.1,4.3c0,2.6,1.5,4.2,4,4.2c0.8,0,1.7-0.2,2.2-0.4L182.8,186.7z"/>
			<path class="st12" d="M186.3,183.8l-1.1,3.3h-1.4l3.6-10.5h1.6l3.6,10.5h-1.4l-1.1-3.3H186.3z M189.7,182.7l-1-3
				c-0.2-0.7-0.4-1.3-0.5-1.9h0c-0.2,0.6-0.3,1.3-0.5,1.9l-1,3H189.7z"/>
			<path class="st12" d="M194.1,187.1v-10.5h1.5l3.4,5.3c0.8,1.2,1.4,2.3,1.9,3.4l0,0c-0.1-1.4-0.2-2.7-0.2-4.3v-4.4h1.3v10.5h-1.4
				l-3.3-5.3c-0.7-1.2-1.4-2.4-2-3.5l0,0c0.1,1.3,0.1,2.6,0.1,4.3v4.5H194.1z"/>
		</g>
		<path id="XMLID_2303_" class="st17" d="M164.6,184.2c0.7-1.9,1.8-3.8,3.1-5.3c1.7-1.9,4.1-3.6,6.6-3.3c1.6,0.2,3,1.1,4.1,2.2
			c3.4,3.2,5,7.8,7.4,11.8c3.3,5.6,8,10.3,13.7,13.5c2.4,1.4,5,2.5,7.3,4c2.3,1.5,4.5,3.5,5.6,6c1,2.5,1,5.2,0.9,7.9
			c-0.1,5.9-0.3,11.9-0.4,17.8c0,0.3,0,0.6,0,0.9c0,0.7,0,1.5-0.1,2.2c0,0.2,0,0.4,0,0.6c0,0.5,0,1.1-0.1,1.6h-5.7h-3.8h-3.4
			c-0.5-7.8,1.8-18.8,1.8-18.8c-4.9-3.3-13.6-14.5-13.6-14.5C159.5,202.2,164.3,185.1,164.6,184.2z"/>
		<path id="XMLID_2304_" class="st8" d="M190.6,206.1l14.9,17.1c0,0-5.1,45.8,14.2,70c19.3,24.2,73.6,15.4,73.6,15.4l5.6-1.6
			c0,0-10.1-38.9-13.7-71.7c-3.6-32.7-6.2-56.3-15.1-71.7c-7.1-12.3-20.9-30-26.1-36.5c-1.3-1.6-2-2.5-2-2.5v59.7l-0.2,6.1l-4.4,5.3
			l-1.1,1.4l-1.8,2.1c0,0-19-19.2-28.5-22.1c-9.5-2.9-16.4,0.7-28.1-3.3C166.1,169.9,154.9,196.6,190.6,206.1z"/>
		<path id="XMLID_2305_" class="st9" d="M265.5,223.3c-11.6-6.3-31.1-24.1-31.1-24.1l2.9-3.5l4.4-5.3l0.2-6.1v-59.7
			c0,0,0.7,0.9,2,2.5v27.4c2.5-7.9,9.9-8.3,9.9-8.3c-8.6,3.9-9.9,12.4-9.9,12.4v29c5.9-3.2,21.5-3.9,21.5-3.9s-15.1,3.3-19.8,6.5
			c-3.3,2.3-4.9,6.6-5.6,9C249.9,211.1,265.2,223.1,265.5,223.3z"/>
		<g id="XMLID_35_">
			<g>
				<polygon id="XMLID_37_" class="st16" points="227.3,134.8 227.3,145 217.1,145 217.1,149.5 231.8,149.5 231.8,134.8 				"/>
				<polygon id="XMLID_36_" class="st16" points="152.7,145 142.5,145 142.5,134.8 138,134.8 138,149.5 152.7,149.5 				"/>
				<polygon id="XMLID_34_" class="st16" points="217.1,60.2 227.3,60.2 227.3,70.4 231.8,70.4 231.8,55.7 217.1,55.7 				"/>
				<polygon id="XMLID_33_" class="st16" points="142.5,70.4 142.5,60.2 152.7,60.2 152.7,55.7 138,55.7 138,70.4 				"/>
			</g>
		</g>
	</g>
</g>
<g>
</g>
<g>
</g>
<g>
</g>
<g>
</g>
<g>
</g>
<g>
</g>
<g>
</g>
</svg>
